<svg width="500" height="500" viewBox="0 0 500 500" fill="none" xmlns="http://www.w3.org/2000/svg">
<path d="M338.297 153.213C326.001 132.523 306.85 116.804 284.184 108.773C283.669 108.59 283.106 108.866 282.929 109.382V109.382C282.751 109.898 283.027 110.461 283.541 110.643C305.764 118.522 324.541 133.936 336.597 154.223C348.822 174.794 353.343 199.038 349.354 222.632C345.366 246.226 333.126 267.637 314.819 283.047C296.512 298.456 273.326 306.862 249.398 306.766C225.469 306.67 202.352 298.078 184.169 282.522C165.986 266.966 153.919 245.458 150.12 221.832C146.321 198.206 151.036 173.999 163.426 153.527C175.645 133.338 194.544 118.075 216.83 110.375C217.346 110.197 217.626 109.637 217.453 109.119V109.119C217.279 108.601 216.718 108.322 216.202 108.5C193.472 116.349 174.196 131.913 161.734 152.504C149.102 173.377 144.294 198.058 148.167 222.146C152.041 246.234 164.344 268.164 182.883 284.024C201.422 299.885 224.992 308.645 249.39 308.743C273.787 308.841 297.427 300.27 316.092 284.559C334.758 268.848 347.237 247.018 351.304 222.962C355.371 198.905 350.761 174.186 338.297 153.213Z" stroke="black" stroke-width="15" stroke-linejoin="round"/>
<ellipse cx="249.729" cy="187.206" rx="36.0294" ry="36.0294" stroke="black" stroke-width="15"/>
<path d="M199.287 361.176L124.14 341.618V425L378.405 341.618V418.823L299.14 403.382" stroke="black" stroke-width="15"/>
</svg>
